<svg xmlns="http://www.w3.org/2000/svg" viewBox="0 0 10.39 13.52"><title>Asset 1</title><g id="Layer_2" data-name="Layer 2"><g id="Layer_1-2" data-name="Layer 1"><path d="M9.66,5.46H9.39V4.23A4.2,4.2,0,0,0,5.32,0H5.07A4.2,4.2,0,0,0,1,4.23V5.46H.74A.86.86,0,0,0,0,6.4v6.19a.86.86,0,0,0,.74.94H9.66a.86.86,0,0,0,.74-.94V6.4a.86.86,0,0,0-.74-.94ZM6,9.48v1.87a.4.4,0,0,1-.39.4H4.76a.4.4,0,0,1-.39-.4V9.48a1.13,1.13,0,0,1,.71-1.93h.25A1.13,1.13,0,0,1,6,9.48Zm1.62-4H2.74V4.23a2.46,2.46,0,1,1,4.92,0Zm0,0"/></g></g></svg>